<?xml version="1.0" standalone="no"?>
<!DOCTYPE svg PUBLIC "-//W3C//DTD SVG 20010904//EN"
 "http://www.w3.org/TR/2001/REC-SVG-20010904/DTD/svg10.dtd">
<svg version="1.0" xmlns="http://www.w3.org/2000/svg"
 width="1024.000000pt" height="1024.000000pt" viewBox="0 0 1024.000000 1024.000000"
 preserveAspectRatio="xMidYMid meet">

<g transform="translate(0.000000,1024.000000) scale(0.100000,-0.100000)"
fill="#000000" stroke="none">
<path d="M0 5120 l0 -5120 5120 0 5120 0 0 5120 0 5120 -5120 0 -5120 0 0
-5120z m5580 3915 c578 -152 604 -158 825 -215 110 -28 290 -75 400 -105 162
-43 543 -142 1014 -264 l63 -16 -1 -160 c-2 -287 -48 -1565 -57 -1574 -2 -3
-15 6 -28 18 -20 19 -24 34 -29 114 -10 168 -65 285 -195 413 l-65 64 2 212
c1 117 4 215 6 218 2 4 5 105 6 226 l1 219 -313 81 c-173 45 -588 152 -924
238 -335 87 -728 188 -873 226 l-262 70 -203 -54 c-111 -30 -319 -84 -462
-121 -487 -125 -1270 -324 -1495 -382 l-225 -57 3 -135 c1 -75 6 -271 11 -437
l10 -300 -82 -85 c-125 -128 -172 -233 -184 -407 -5 -78 -9 -95 -26 -107 -12
-8 -22 -13 -24 -12 -12 13 -73 1721 -61 1732 2 2 336 90 743 195 1235 319
1652 428 1825 474 91 24 172 42 180 41 8 -2 197 -51 420 -110z m-963 -886
c136 -135 268 -259 293 -276 90 -61 205 -84 312 -63 129 25 151 41 438 328
l264 265 28 -204 c34 -245 47 -519 28 -626 -6 -40 -14 -73 -16 -73 -2 0 -17
12 -33 26 -26 23 -28 29 -20 57 28 98 19 341 -19 491 l-17 67 -69 -133 c-77
-148 -154 -271 -228 -366 -27 -35 -48 -65 -46 -66 2 -1 26 -11 53 -20 147 -53
262 -150 320 -271 68 -138 101 -345 76 -467 -29 -138 -130 -264 -271 -337 -43
-23 -81 -41 -85 -41 -4 0 -6 44 -3 98 3 77 8 107 27 142 l23 45 -32 -30 c-42
-40 -88 -136 -101 -214 -9 -48 -9 -101 0 -211 13 -153 10 -180 -21 -242 -45
-90 -178 -89 -281 1 l-36 32 19 50 c10 28 34 69 53 92 46 56 77 119 77 156 l0
30 -62 -29 c-124 -55 -132 -56 -233 -15 -49 20 -96 39 -104 42 -11 5 -12 -1
-7 -33 10 -50 28 -85 86 -160 57 -74 74 -136 43 -160 -96 -76 -189 -95 -254
-51 -69 46 -80 109 -58 329 17 168 -14 284 -101 379 l-50 54 31 -62 c27 -53
32 -73 33 -146 0 -47 -2 -88 -6 -92 -9 -9 -95 37 -163 88 -216 163 -264 444
-124 734 66 138 208 260 342 293 26 7 47 14 47 17 0 2 -24 34 -53 71 -89 111
-168 239 -268 432 -28 55 -34 61 -37 40 -2 -14 -12 -70 -23 -125 -23 -112 -28
-306 -10 -394 11 -52 10 -54 -19 -81 -34 -32 -34 -32 -51 81 -14 98 -7 330 16
489 8 58 20 151 26 208 7 56 14 101 15 100 1 -2 114 -114 251 -249z m-993
-162 c83 -56 200 -178 246 -256 72 -123 82 -168 91 -426 9 -266 14 -297 80
-504 79 -243 90 -298 96 -467 10 -277 -28 -436 -213 -896 -140 -348 -167 -458
-167 -668 0 -148 22 -268 68 -368 l24 -53 -27 20 c-15 11 -57 50 -93 88 -249
260 -365 537 -336 811 14 142 118 441 201 582 24 41 90 131 145 200 57 71 119
161 143 209 39 76 43 91 46 171 2 48 -1 113 -8 143 -18 90 -81 206 -150 280
-68 73 -93 87 -55 31 64 -94 91 -246 65 -368 -36 -173 -188 -339 -365 -397
-64 -21 -212 -39 -319 -39 -131 0 -234 -26 -462 -119 -55 -22 -126 -43 -156
-47 -75 -9 -152 15 -201 61 l-38 36 26 31 c27 31 55 90 55 114 0 16 -62 34
-148 43 l-63 6 83 61 c46 33 148 102 228 152 188 119 236 156 279 216 33 46
35 55 42 155 8 118 18 153 64 226 77 121 302 281 478 340 157 52 292 43 380
-27 21 -16 40 -28 43 -25 2 2 -11 55 -30 118 -34 111 -204 614 -221 653 -7 17
1 15 51 -13 32 -19 86 -52 118 -74z m3216 88 c0 -2 -9 -27 -20 -55 -11 -27
-49 -141 -84 -253 -36 -111 -87 -264 -114 -340 l-49 -137 33 25 c96 73 179 89
318 60 131 -27 243 -82 392 -193 175 -130 244 -249 244 -425 0 -39 6 -80 14
-95 26 -51 111 -118 331 -264 121 -80 230 -157 243 -170 l23 -25 -68 -7 c-84
-8 -143 -24 -143 -37 0 -19 31 -84 57 -118 l27 -34 -38 -33 c-100 -86 -200
-83 -421 11 -159 68 -236 85 -426 95 -235 13 -304 30 -422 108 -239 156 -314
517 -148 716 15 18 15 18 -6 8 -38 -21 -118 -119 -160 -199 -79 -149 -90 -306
-30 -435 22 -50 115 -178 227 -313 59 -72 114 -175 163 -305 19 -52 50 -133
67 -180 109 -289 70 -544 -126 -842 -46 -69 -254 -288 -273 -288 -5 0 1 19 14
43 13 23 36 87 50 142 22 82 27 123 27 230 2 210 -27 329 -162 665 -191 479
-242 701 -220 953 11 132 28 204 90 392 72 218 80 271 80 502 0 131 5 220 14
264 21 96 83 212 160 297 91 100 121 125 228 187 89 52 108 61 108 50z m-3742
-135 c79 -54 121 -95 175 -168 39 -54 107 -200 107 -232 0 -5 -15 -10 -33 -10
-41 0 -179 -36 -220 -56 l-30 -16 7 54 c10 79 -10 251 -43 367 -15 56 -26 101
-24 101 2 0 30 -18 61 -40z m4147 -16 c-31 -91 -47 -189 -52 -322 -5 -117 -8
-132 -22 -126 -69 28 -135 45 -193 51 -67 6 -68 6 -62 32 24 100 93 218 176
298 42 40 160 124 166 118 2 -2 -4 -25 -13 -51z m-2731 -1725 c20 -41 41 -98
46 -128 6 -29 10 -176 10 -325 0 -497 26 -623 234 -1160 107 -274 145 -391
181 -556 24 -108 59 -359 51 -367 -2 -2 -20 18 -42 44 -47 59 -214 252 -270
313 -132 143 -268 314 -349 439 -138 213 -225 487 -225 708 0 110 33 279 99
501 85 285 101 377 101 575 l1 162 63 -66 c41 -43 77 -94 100 -140z m1464
-274 c11 -55 37 -154 57 -220 102 -330 109 -366 109 -545 1 -164 -13 -243 -71
-400 -86 -232 -215 -418 -522 -750 -58 -64 -148 -170 -199 -235 l-94 -120 7
60 c27 243 88 474 212 799 203 533 242 727 243 1189 0 318 9 388 67 507 25 51
56 94 97 135 l61 60 6 -190 c5 -130 13 -222 27 -290z m-2804 -2 l49 -16 -54
-17 c-73 -23 -119 -48 -219 -120 -201 -145 -253 -170 -350 -170 -93 0 -164 39
-214 119 l-26 41 42 0 c69 0 165 25 273 70 296 122 364 135 499 93z m4151 12
c32 -9 106 -36 164 -62 177 -77 301 -113 387 -113 24 0 44 -4 44 -9 0 -22 -70
-98 -110 -121 -38 -21 -58 -25 -125 -24 -109 0 -166 25 -317 136 -116 85 -244
158 -277 158 -31 0 8 23 61 35 72 18 103 18 173 0z m-2001 -125 c27 -6 63 -8
80 -4 23 4 33 2 34 -8 1 -7 5 -78 8 -158 8 -171 -5 -254 -66 -437 -40 -122
-177 -468 -212 -537 l-20 -39 -19 42 c-47 106 -190 477 -222 576 -19 61 -43
146 -52 190 -19 86 -25 251 -12 326 l8 46 43 -4 c50 -6 147 22 210 61 l40 24
66 -34 c37 -18 88 -38 114 -44z m-2180 -837 c10 -32 41 -110 68 -173 143 -333
363 -664 685 -1029 51 -58 93 -108 93 -112 0 -7 -458 -5 -463 2 -1 2 -23 29
-48 59 -205 248 -394 535 -541 821 -66 129 -144 301 -150 332 -2 14 18 24 107
55 61 21 135 52 165 69 30 17 58 31 61 32 3 0 13 -25 23 -56z m4276 -53 c41
-13 81 -24 87 -26 18 -5 -9 -70 -122 -299 -146 -295 -304 -544 -509 -802
l-105 -132 -241 -3 c-132 -2 -240 -2 -240 0 0 2 43 50 95 106 328 353 638 833
755 1173 l32 92 87 -43 c47 -24 120 -54 161 -66z m-5179 -1470 c80 -24 138
-66 178 -128 47 -73 61 -146 61 -308 0 -162 9 -148 -100 -159 -36 -3 -82 -8
-102 -11 l-38 -6 0 124 c0 143 -10 189 -48 218 -23 19 -37 21 -99 18 -84 -4
-115 -22 -153 -89 l-25 -44 0 -525 c0 -491 1 -527 18 -552 53 -78 210 -53 274
43 26 40 28 51 33 173 l5 131 100 17 c55 9 108 17 118 17 15 1 17 -12 17 -130
0 -87 -5 -152 -16 -193 -50 -195 -200 -330 -413 -372 -179 -35 -302 16 -362
151 -37 85 -42 167 -36 725 5 571 7 592 58 695 28 59 114 147 170 175 101 52
250 64 360 30z m6082 -18 c178 -88 253 -238 245 -492 l-3 -95 -85 2 c-47 1
-103 6 -125 10 l-40 9 -5 120 c-6 133 -16 160 -73 194 -45 28 -140 27 -185 0
-68 -41 -89 -178 -40 -261 15 -24 123 -137 241 -251 225 -217 274 -277 301
-368 40 -129 30 -370 -19 -475 -52 -113 -130 -160 -265 -159 -243 2 -463 167
-515 385 -19 81 -21 309 -3 309 7 0 63 -10 125 -22 l113 -21 0 -117 c0 -103 3
-122 23 -161 42 -79 170 -124 245 -85 47 24 57 57 57 185 0 103 -3 121 -24
160 -14 26 -116 137 -256 275 -291 289 -290 288 -290 486 0 131 1 137 31 200
36 76 89 132 156 166 71 36 112 44 225 40 91 -2 109 -6 166 -34z m-5043 -142
l0 -100 -137 0 c-76 0 -168 -3 -205 -7 l-68 -6 0 -205 0 -205 68 7 c37 3 106
9 155 13 l87 6 0 -100 0 -100 -62 -7 c-35 -3 -105 -11 -155 -17 l-93 -11 0
-224 0 -223 28 4 c103 19 340 55 359 55 22 0 23 -2 23 -104 l0 -105 -52 -10
c-29 -5 -169 -29 -310 -53 l-258 -44 0 768 0 768 310 0 310 0 0 -100z m660 76
c91 -48 128 -111 140 -239 10 -103 3 -286 -12 -336 -12 -39 -82 -119 -114
-132 l-22 -8 19 -88 c11 -48 42 -182 70 -297 37 -153 48 -211 39 -216 -18 -11
-172 -22 -181 -13 -4 4 -21 71 -39 148 -48 206 -98 406 -102 410 -2 3 -28 2
-56 -2 l-52 -6 0 -292 0 -292 -92 -11 c-50 -6 -95 -9 -100 -6 -10 6 -11 1388
0 1398 4 4 110 6 237 4 201 -3 234 -5 265 -22z m840 0 c49 -26 88 -64 113
-111 18 -34 22 -61 25 -177 4 -159 -9 -219 -62 -272 l-33 -32 33 -34 c59 -59
69 -103 69 -295 0 -156 -2 -173 -22 -211 -28 -52 -91 -107 -140 -122 -52 -15
-190 -30 -365 -38 l-147 -7 -5 24 c-3 13 -4 44 -3 69 2 25 5 312 5 638 l2 593
248 -3 c218 -3 251 -5 282 -22z m1021 20 c2 -2 3 -47 1 -100 l-3 -96 -240 0
-239 0 0 -170 0 -170 140 -1 c77 -1 146 -2 153 -3 9 -1 12 -27 12 -96 l0 -95
-152 -3 -153 -3 0 -174 0 -175 148 0 c82 0 190 -3 240 -6 l92 -7 0 -100 0
-100 -67 6 c-38 4 -195 10 -350 13 l-283 7 0 639 0 638 348 0 c192 0 351 -2
353 -4z m703 -13 c77 -21 144 -85 169 -158 24 -70 24 -375 1 -437 -20 -50 -75
-112 -115 -128 -33 -14 -36 9 33 -285 71 -301 82 -354 77 -359 -5 -5 -189 20
-195 27 -4 4 -63 258 -111 477 l-18 85 -58 5 -57 5 -2 -225 c-3 -276 -4 -309
-11 -317 -3 -3 -54 -2 -112 2 l-105 7 0 659 0 659 222 0 c178 0 234 -3 282
-17z m595 -568 c-1 -572 -1 -585 19 -617 24 -38 45 -53 89 -62 43 -10 98 15
123 56 19 32 20 49 20 621 l0 587 105 0 106 0 -3 -632 -3 -633 -23 -50 c-49
-107 -124 -156 -248 -163 -183 -10 -319 75 -388 242 -20 49 -21 68 -24 644
l-3 592 115 0 115 0 0 -585z m-2817 -1101 c40 -21 71 -70 76 -125 l5 -49 -45
0 c-42 0 -46 2 -54 32 -18 61 -95 76 -128 25 -18 -28 -19 -34 -17 -189 1 -114
3 -130 21 -148 47 -47 120 -11 120 59 0 35 -2 39 -21 34 -27 -8 -39 11 -39 65
l0 42 81 0 81 0 -4 -114 c-2 -97 -6 -119 -24 -142 -35 -47 -70 -67 -126 -71
-74 -6 -135 26 -166 87 -22 43 -23 54 -20 227 3 165 5 184 24 209 57 77 152
100 236 58z m353 -22 c3 -21 5 -122 3 -225 -3 -180 -2 -187 19 -208 28 -28 68
-27 99 1 l24 23 0 224 0 224 48 -3 47 -3 0 -235 c0 -219 -1 -238 -21 -275 -53
-101 -204 -113 -278 -22 l-31 39 -3 249 -3 249 45 0 c43 0 44 -1 51 -38z m694
-251 c39 -160 71 -292 71 -295 0 -3 -22 -6 -48 -6 l-49 0 -18 60 -18 61 -66
-3 -65 -3 -16 -55 -16 -55 -48 -6 c-26 -3 -49 -3 -50 0 -3 5 87 372 129 529
l17 62 53 0 52 0 72 -289z m464 275 c70 -30 103 -99 94 -202 -5 -65 -32 -119
-67 -132 -16 -6 -15 -17 20 -125 l38 -118 -51 3 -52 3 -30 102 -30 103 -37 0
-38 0 0 -105 0 -105 -49 0 -50 0 -1 263 c0 144 2 277 6 295 l7 32 104 0 c65 0
115 -5 136 -14z m517 -8 c74 -38 93 -85 96 -235 4 -207 -10 -259 -86 -310 -29
-21 -45 -23 -146 -23 l-114 0 0 295 0 295 103 0 c87 0 110 -4 147 -22z m-2659
-278 c23 -13 25 -43 4 -60 -11 -9 -155 -13 -597 -15 -321 -1 -593 1 -604 5
-30 12 -38 39 -18 61 16 18 45 19 606 19 387 0 596 -4 609 -10z m4267 -2 c19
-19 14 -46 -10 -61 -19 -12 -126 -14 -573 -16 -361 -2 -560 1 -578 8 -29 11
-37 47 -15 69 17 17 1159 17 1176 0z"/>
<path d="M4440 7130 c0 -14 72 -112 123 -167 21 -23 72 -63 113 -88 48 -30 84
-61 100 -86 30 -49 53 -145 55 -233 1 -39 5 -64 10 -59 5 5 23 49 41 99 26 72
32 105 32 174 1 101 -14 149 -62 202 -50 55 -134 95 -264 124 -61 14 -119 29
-130 35 -12 7 -18 6 -18 -1z"/>
<path d="M5710 7095 c-160 -42 -209 -64 -259 -116 -87 -89 -93 -239 -18 -423
l24 -58 6 73 c7 92 40 199 73 238 13 16 53 48 87 70 86 55 108 76 164 156 62
88 66 95 56 94 -4 -1 -64 -16 -133 -34z"/>
<path d="M3478 6865 c-3 -3 -74 -12 -158 -20 -174 -17 -204 -24 -264 -59 -57
-33 -91 -85 -130 -198 -18 -51 -38 -103 -44 -115 -22 -41 -12 -35 58 30 84 80
107 92 196 108 92 15 114 28 209 119 44 42 99 89 123 105 23 15 42 29 42 31 0
6 -26 5 -32 -1z"/>
<path d="M6780 6866 c0 -2 17 -15 38 -27 20 -13 76 -60 124 -106 104 -98 121
-107 216 -121 82 -12 112 -28 211 -119 34 -30 61 -52 61 -48 0 3 -9 24 -21 47
-12 23 -28 64 -36 92 -37 123 -101 201 -193 231 -26 8 -96 20 -156 25 -60 5
-134 14 -163 20 -58 11 -81 12 -81 6z"/>
<path d="M4924 5668 c13 -133 45 -218 164 -440 l63 -118 40 78 c94 178 139
271 159 332 25 73 39 210 23 210 -6 0 -14 -12 -18 -27 -17 -71 -142 -283 -189
-322 -13 -11 -19 -11 -31 -1 -40 33 -195 294 -195 329 0 5 -5 13 -12 17 -8 5
-9 -10 -4 -58z"/>
<path d="M3678 3183 l-48 -4 0 -196 0 -195 73 4 c83 4 136 26 159 66 19 33 31
182 18 236 -18 78 -70 101 -202 89z"/>
<path d="M4460 3025 l0 -165 79 0 c146 0 171 27 171 181 0 87 -1 92 -29 120
-28 28 -33 29 -125 29 l-96 0 0 -165z"/>
<path d="M4465 2662 c-3 -3 -5 -90 -5 -194 l0 -188 63 0 c91 1 138 14 170 51
29 31 29 31 25 155 -3 120 -4 124 -31 151 -26 26 -33 28 -122 29 -52 0 -97 -1
-100 -4z"/>
<path d="M6230 2991 l0 -193 91 4 c91 4 92 5 126 42 l35 37 -4 120 c-3 114 -4
120 -31 146 -25 26 -35 28 -122 33 l-95 5 0 -194z"/>
<path d="M5197 1510 c-8 -22 -37 -148 -37 -160 0 -5 20 -10 45 -10 42 0 45 2
40 23 -31 121 -43 160 -48 147z"/>
<path d="M5668 1613 c-28 -4 -28 -5 -28 -84 l0 -79 53 0 c68 0 87 18 87 83 0
46 -18 77 -45 77 -7 0 -19 2 -27 3 -7 2 -25 2 -40 0z"/>
<path d="M6155 1567 c-4 -23 -5 -108 -3 -187 l3 -144 55 2 c40 2 60 8 72 22
22 27 31 121 23 226 -9 107 -22 124 -94 124 l-50 0 -6 -43z"/>
</g>
</svg>
